<svg height="16" viewBox="0 0 4.2333332 4.2333333" width="16" xmlns="http://www.w3.org/2000/svg"><g fill="#ff5a00" transform="matrix(.01655499 0 0 .01655499 -.125982 -.281004)"><path d="m135.46667 38.836389c-31.85964 0-57.687438 5.846125-57.687438 30.35577 0 5.926922 1.52262 11.577946 4.263305 16.746781-11.933327.68453-23.844407 3.270633-34.270776 9.046477-8.864921 4.910857-16.461341 12.077733-21.921659 20.612183-1.541728 2.40968-3.701232 6.52749-4.806942 9.16584-3.614106 8.62375-5.235629 18.08201-4.677751 27.41642.07724 1.29241 1.220181 2.51356 2.496489 2.73161l38.94956 6.65438c1.160939.19834 2.793677-.2997 3.679362-1.0759 1.68438-1.4762 3.455715-2.85332 5.302002-4.1212.769536-.52845 1.576715-.99094 2.368848-1.48001l-8.287866 25.7731a74.754976 74.754976 0 0 0 -3.588929 22.88491v16.74161a24.081248 24.081248 0 0 0 3.22616 12.04113l.654224 1.13223a7.5537718 7.5537718 0 0 1 1.011824 3.77703v7.31583a6.2706254 6.2706254 0 0 0 6.270419 6.27042h67.019168 67.36281a5.926667 5.926667 0 0 0 5.92677-5.92677v-7.47086a8.2578798 8.2578798 0 0 1 1.10639-4.12895l1.37821-2.38745a17.968548 17.968548 0 0 0 2.40761-8.98446v-18.91255a71.359611 71.359611 0 0 0 -3.42615-21.84517l-8.88163-27.62002c-.87601-2.72421.70784-5.29694 3.49695-5.93504 6.39525-1.46313 12.58486-3.67613 18.32394-6.8554 10.37597-5.74789 19.01446-14.58627 24.52357-25.09097 5.08045-9.68734 7.482-20.758281 6.90656-31.679722-.0805-1.526769-1.43114-2.96918-2.93833-3.226676l-38.83535-6.634737c-.9933-.169701-2.39031.255746-3.14451.923974-1.75321 1.553347-3.60209 2.998824-5.533 4.324801-4.89716 3.362955-10.28411 5.87845-15.91221 7.759216 3.15795-5.487589 4.9258-11.554541 4.9258-17.942057 0-24.509645-25.82783-30.355771-57.68743-30.35577zm0 11.60291c45.54951 0 41.15149 17.016601 41.15149 19.340938 0 2.456628-3.50823 9.353706-16.54524 13.166638-16.42246 4.80306-24.60625 6.682203-24.60625 18.653125 0-11.970922-8.18382-13.850065-24.60625-18.653125-13.037035-3.812932-16.545247-10.71001-16.545247-13.166638 0-2.324337-4.39804-19.340938 41.151497-19.340938zm-15.37012 46.841585a4.5 4.5 0 0 1 1.6278.658874 4.5 4.5 0 0 1 1.29295 6.232182c-1.59299 2.42614-3.18656 4.85143-4.77956 7.27759-3.45985 5.2694-7.92623 15.87607-9.27747 22.03328-.57147 2.604-1.14316 5.20843-1.71462 7.81244a4.5 4.5 0 0 1 -5.35936 3.43132 4.5 4.5 0 0 1 -3.431834-5.36143c.571463-2.604 1.14367-5.20637 1.715144-7.81038 1.72336-7.85289 6.1319-18.32441 10.54457-25.04498 1.59299-2.42613 3.18655-4.85092 4.77956-7.277077a4.5 4.5 0 0 1 2.84737-1.937867 4.5 4.5 0 0 1 1.75545-.01395zm30.7392 0a4.5 4.5 0 0 1 1.75545.01395 4.5 4.5 0 0 1 2.84789 1.937867c1.593 2.426159 3.18605 4.850949 4.77904 7.277079 4.41267 6.72057 8.82172 17.19209 10.54509 25.04498.57147 2.60401 1.14316 5.20638 1.71462 7.81038a4.5 4.5 0 0 1 -3.43131 5.36143 4.5 4.5 0 0 1 -5.35936-3.43132c-.57146-2.60401-1.14368-5.20844-1.71514-7.81244-1.35123-6.15721-5.81763-16.76388-9.27747-22.03328-1.59301-2.42616-3.18398-4.85145-4.77697-7.27759a4.5 4.5 0 0 1 1.29087-6.232184 4.5 4.5 0 0 1 1.62729-.658874zm29.06851 67.311136c4.69417-.0255 8.58591 2.95609 9.5958 7.64036 1.59932 7.41844 4.61195 23.62381 4.9413 42.24032.0751 4.24611-3.47217 7.77937-7.67188 7.77937h-51.30281-49.648136c-5.114567 0-9.426924-4.29223-9.289355-9.47488.442226-16.65999 2.967701-31.19914 4.564579-38.93354 1.153072-5.58482 5.959917-9.27418 11.542965-9.24388l42.804627.2341h.0491zm.0491 8.99997-44.46292.24184a4.5 4.5 0 0 1 -.0238-.01 4.5 4.5 0 0 1 -.0253.01l-42.853203-.23409c-.85566-.005-2.531249 1.3443-2.67994 2.06447-1.523945 7.38117-3.960992 21.4651-4.382678 37.35121-.0048.17953.04338.23668.293005.23668h49.648136 49.90651c-.43829-17.14584-3.19386-32.26655-4.67207-39.12319.0273.12657-.77895-.53675-.74775-.53692z"/><g transform="matrix(.98571316 .16843269 -.16843269 .98571316 0 0)"><path d="m52.292405 153.97993h22.754166a3.175 3.175 45 0 1 3.175 3.175v12.43542a3.175 3.175 135 0 1 -3.175 3.175h-22.754166a3.175 3.175 45 0 1 -3.175-3.175v-12.43542a3.175 3.175 135 0 1 3.175-3.175z"/><path d="m231.36734 14.037077h22.75416a3.175 3.175 45 0 1 3.175 3.175v12.435416a3.175 3.175 135 0 1 -3.175 3.175h-22.75416a3.175 3.175 45 0 1 -3.175-3.175v-12.435416a3.175 3.175 135 0 1 3.175-3.175z"/></g></g></svg>